<svg xmlns="http://www.w3.org/2000/svg" xmlns:xlink="http://www.w3.org/1999/xlink" width="100" height="30.33" viewBox="0 0 100 30.33">
  <defs>
    <clipPath id="clip-path">
      <rect width="100" height="30.33" fill="none"/>
    </clipPath>
  </defs>
  <g id="bitroll_logo_white" clip-path="url(#clip-path)">
    <path id="Union_1" data-name="Union 1" d="M63.874,19.98c0-6.178,4.018-10.311,10.007-10.311,5.952,0,9.97,4.133,9.97,10.311,0,6.217-4.018,10.35-9.97,10.35C67.892,30.327,63.874,26.2,63.874,19.98Zm2.009,0c0,5.269,3.184,8.8,8,8.8,4.777,0,7.961-3.527,7.961-8.8,0-5.232-3.184-8.757-7.961-8.757C69.067,11.223,65.883,14.747,65.883,19.98ZM4.7,29A9.084,9.084,0,0,1,0,30.142V1.518L5.307,0V10.578A11.639,11.639,0,0,1,10.88,9.1c6.142,0,10.235,4.284,10.235,10.691,0,6.331-4.133,10.54-10.274,10.54A14.76,14.76,0,0,1,4.7,29Zm.608-14.371v10.54a10.944,10.944,0,0,0,4.17.985c3.755,0,6.142-2.579,6.142-6.407,0-3.9-2.389-6.482-6.028-6.482A8.153,8.153,0,0,0,5.307,14.633Zm31.768,8.832v-10.2H34.117V9.479h2.958V5.006L42.382,3.49V9.479h6.067v3.79H42.382v9.362A3.273,3.273,0,0,0,45.8,26.156a23.256,23.256,0,0,0,2.841-.187v3.9a24.919,24.919,0,0,1-4.549.455C39.88,30.327,37.075,27.6,37.075,23.465Zm61.03,6.482V.722L100,.19V29.948Zm-8.757,0V.722L91.243.19V29.948Zm-36.467,0V9.895a3.457,3.457,0,0,1,1.858.494,35.792,35.792,0,0,1,7.961-.72v1.744a41.838,41.838,0,0,0-7.925.681V29.948Zm-27.635,0V9.479h5.307V29.948Zm-.491-26.8a3.166,3.166,0,0,1,6.331,0A3.077,3.077,0,0,1,27.9,6.292H27.9A3.044,3.044,0,0,1,24.755,3.147Z" fill="#f6f6f5"/>
  </g>
</svg>
